<svg xmlns="http://www.w3.org/2000/svg" xmlns:xlink="http://www.w3.org/1999/xlink" width="539.583509pt" height="323.671818pt" viewBox="0 0 539.583509 323.671818"><defs><style>*{stroke-linejoin:round;stroke-linecap:butt}</style></defs><g id="figure_1"><path id="patch_1" d="M0 323.672h539.584V0H0z" style="fill:#0d1117"/><g id="axes_1"><path id="patch_2" d="M53.31 284.847h479.074V11.43H53.31z" style="fill:#0d1117"/><g id="matplotlib.axis_1"><g id="xtick_1"><path id="line2d_1" d="M114.68 284.847V11.43" clip-path="url(#p8f151c4a17)" style="fill:none;stroke:#232a33;stroke-width:.8;stroke-linecap:square"/><g id="line2d_2"><defs><path id="maddb0b4b37" d="M0 0v3.5" style="stroke:#768390;stroke-width:.8"/></defs><use xlink:href="#maddb0b4b37" x="114.679607" y="284.847365" style="fill:#768390;stroke:#768390;stroke-width:.8"/></g><g id="text_1" style="fill:#768390" transform="matrix(.09 0 0 -.09 106.76 300.307)"><defs><path id="DejaVuSans-14" d="M794 531h1031v3560L703 3866v575l1116 225h631V531h1031V0H794z" transform="scale(.01563)"/><path id="DejaVuSans-13" d="M2034 4250q-487 0-733-480-245-479-245-1442 0-959 245-1439 246-480 733-480 491 0 736 480 246 480 246 1439 0 963-246 1442-245 480-736 480m0 500q785 0 1199-621 414-620 414-1801 0-1178-414-1799Q2819-91 2034-91q-784 0-1198 620-414 621-414 1799 0 1181 414 1801 414 621 1198 621" transform="scale(.01563)"/><path id="DejaVuSans-15" d="M1228 531h2203V0H469v531q359 372 979 998 621 627 780 809 303 340 423 576 121 236 121 464 0 372-261 606-261 235-680 235-297 0-627-103-329-103-704-313v638q381 153 712 231 332 78 607 78 725 0 1156-363 431-362 431-968 0-288-108-546-107-257-392-607-78-91-497-524-418-433-1181-1211" transform="scale(.01563)"/></defs><use xlink:href="#DejaVuSans-14" transform="translate(0 .747)"/><use xlink:href="#DejaVuSans-13" transform="translate(63.623 .747)"/><use xlink:href="#DejaVuSans-15" transform="matrix(.7 0 0 .7 128.203 42.047)"/></g></g><g id="xtick_2"><path id="line2d_3" d="M193.865 284.847V11.43" clip-path="url(#p8f151c4a17)" style="fill:none;stroke:#232a33;stroke-width:.8;stroke-linecap:square"/><use xlink:href="#maddb0b4b37" id="line2d_4" x="193.865192" y="284.847365" style="fill:#768390;stroke:#768390;stroke-width:.8"/><g id="text_2" style="fill:#768390" transform="matrix(.09 0 0 -.09 185.945 300.217)"><defs><path id="DejaVuSans-17" d="M2419 4116 825 1625h1594zm-166 550h794V1625h666v-525h-666V0h-628v1100H313v609z" transform="scale(.01563)"/></defs><use xlink:href="#DejaVuSans-14" transform="translate(0 .666)"/><use xlink:href="#DejaVuSans-13" transform="translate(63.623 .666)"/><use xlink:href="#DejaVuSans-17" transform="matrix(.7 0 0 .7 128.203 41.966)"/></g></g><g id="xtick_3"><path id="line2d_5" d="M273.05 284.847V11.43" clip-path="url(#p8f151c4a17)" style="fill:none;stroke:#232a33;stroke-width:.8;stroke-linecap:square"/><use xlink:href="#maddb0b4b37" id="line2d_6" x="273.050777" y="284.847365" style="fill:#768390;stroke:#768390;stroke-width:.8"/><g id="text_3" style="fill:#768390" transform="matrix(.09 0 0 -.09 265.13 300.307)"><defs><path id="DejaVuSans-19" d="M2113 2584q-425 0-674-291-248-290-248-796 0-503 248-796 249-292 674-292t673 292q248 293 248 796 0 506-248 796-248 291-673 291m1253 1979v-575q-238 112-480 171-242 60-480 60-625 0-955-422-329-422-376-1275 184 272 462 417 279 145 613 145 703 0 1111-427 408-426 408-1160 0-719-425-1154Q2819-91 2113-91q-810 0-1238 620-428 621-428 1799 0 1106 525 1764t1409 658q238 0 480-47t505-140" transform="scale(.01563)"/></defs><use xlink:href="#DejaVuSans-14" transform="translate(0 .747)"/><use xlink:href="#DejaVuSans-13" transform="translate(63.623 .747)"/><use xlink:href="#DejaVuSans-19" transform="matrix(.7 0 0 .7 128.203 42.047)"/></g></g><g id="xtick_4"><path id="line2d_7" d="M352.236 284.847V11.43" clip-path="url(#p8f151c4a17)" style="fill:none;stroke:#232a33;stroke-width:.8;stroke-linecap:square"/><use xlink:href="#maddb0b4b37" id="line2d_8" x="352.236362" y="284.847365" style="fill:#768390;stroke:#768390;stroke-width:.8"/><g id="text_4" style="fill:#768390" transform="matrix(.09 0 0 -.09 344.316 300.307)"><defs><path id="DejaVuSans-1b" d="M2034 2216q-450 0-708-241-257-241-257-662 0-422 257-663 258-241 708-241t709 242q260 243 260 662 0 421-258 662-257 241-711 241m-631 268q-406 100-633 378-226 279-226 679 0 559 398 884 399 325 1092 325 697 0 1094-325t397-884q0-400-227-679-226-278-629-378 456-106 710-416 255-309 255-755 0-679-414-1042Q2806-91 2034-91q-771 0-1186 362-414 363-414 1042 0 446 256 755 257 310 713 416m-231 997q0-362 226-565 227-203 636-203 407 0 636 203 230 203 230 565 0 363-230 566-229 203-636 203-409 0-636-203-226-203-226-566" transform="scale(.01563)"/></defs><use xlink:href="#DejaVuSans-14" transform="translate(0 .747)"/><use xlink:href="#DejaVuSans-13" transform="translate(63.623 .747)"/><use xlink:href="#DejaVuSans-1b" transform="matrix(.7 0 0 .7 128.203 42.047)"/></g></g><g id="xtick_5"><path id="line2d_9" d="M431.422 284.847V11.43" clip-path="url(#p8f151c4a17)" style="fill:none;stroke:#232a33;stroke-width:.8;stroke-linecap:square"/><use xlink:href="#maddb0b4b37" id="line2d_10" x="431.421947" y="284.847365" style="fill:#768390;stroke:#768390;stroke-width:.8"/><g id="text_5" style="fill:#768390" transform="matrix(.09 0 0 -.09 421.477 300.307)"><use xlink:href="#DejaVuSans-14" transform="translate(0 .747)"/><use xlink:href="#DejaVuSans-13" transform="translate(63.623 .747)"/><use xlink:href="#DejaVuSans-14" transform="matrix(.7 0 0 .7 128.203 42.047)"/><use xlink:href="#DejaVuSans-13" transform="matrix(.7 0 0 .7 172.74 42.047)"/></g></g><g id="xtick_6"><path id="line2d_11" d="M510.608 284.847V11.43" clip-path="url(#p8f151c4a17)" style="fill:none;stroke:#232a33;stroke-width:.8;stroke-linecap:square"/><use xlink:href="#maddb0b4b37" id="line2d_12" x="510.607532" y="284.847365" style="fill:#768390;stroke:#768390;stroke-width:.8"/><g id="text_6" style="fill:#768390" transform="matrix(.09 0 0 -.09 500.663 300.307)"><use xlink:href="#DejaVuSans-14" transform="translate(0 .747)"/><use xlink:href="#DejaVuSans-13" transform="translate(63.623 .747)"/><use xlink:href="#DejaVuSans-14" transform="matrix(.7 0 0 .7 128.203 42.047)"/><use xlink:href="#DejaVuSans-15" transform="matrix(.7 0 0 .7 172.74 42.047)"/></g></g><g id="text_7" style="fill:#c9d1d9" transform="matrix(.1 0 0 -.1 236.747 314.07)"><defs><path id="DejaVuSans-46" d="M3122 3366v-538q-244 135-489 202t-495 67q-560 0-870-355-309-354-309-995t309-996q310-354 870-354 250 0 495 67t489 202V134Q2881 22 2623-34q-257-57-548-57-791 0-1257 497-465 497-465 1341 0 856 470 1346 471 491 1290 491 265 0 518-55 253-54 491-163" transform="scale(.01563)"/><path id="DejaVuSans-52" d="M1959 3097q-462 0-731-361t-269-989 267-989q268-361 733-361 460 0 728 362 269 363 269 988 0 622-269 986-268 364-728 364m0 487q750 0 1178-488 429-487 429-1349 0-859-429-1349Q2709-91 1959-91q-753 0-1180 489-426 490-426 1349 0 862 426 1349 427 488 1180 488" transform="scale(.01563)"/><path id="DejaVuSans-51" d="M3513 2113V0h-575v2094q0 497-194 743-194 247-581 247-466 0-735-297-269-296-269-809V0H581v3500h578v-544q207 316 486 472 280 156 646 156 603 0 912-373 310-373 310-1098" transform="scale(.01563)"/><path id="DejaVuSans-47" d="M2906 2969v1894h575V0h-575v525q-181-312-458-464-276-152-664-152-634 0-1033 506-398 507-398 1332t398 1331q399 506 1033 506 388 0 664-152 277-151 458-463M947 1747q0-634 261-995t717-361 718 361q263 361 263 995t-263 995q-262 361-718 361t-717-361-261-995" transform="scale(.01563)"/><path id="DejaVuSans-4c" d="M603 3500h575V0H603zm0 1363h575v-729H603z" transform="scale(.01563)"/><path id="DejaVuSans-57" d="M1172 4494v-994h1184v-447H1172V1153q0-428 117-550t477-122h590V0h-590q-666 0-919 248-253 249-253 905v1900H172v447h422v994z" transform="scale(.01563)"/><path id="DejaVuSans-58" d="M544 1381v2119h575V1403q0-497 193-746 194-248 582-248 465 0 735 297 271 297 271 810v1984h575V0h-575v538q-209-319-486-474-276-155-642-155-603 0-916 375-312 375-312 1097m1447 2203" transform="scale(.01563)"/><path id="DejaVuSans-50" d="M3328 2828q216 388 516 572t706 184q547 0 844-383 297-382 297-1088V0h-578v2094q0 503-179 746-178 244-543 244-447 0-707-297-259-296-259-809V0h-578v2094q0 506-178 748t-550 242q-441 0-701-298-259-298-259-808V0H581v3500h578v-544q197 322 472 475t653 153q382 0 649-194 267-193 395-562" transform="scale(.01563)"/><path id="DejaVuSans-45" d="M3116 1747q0 634-261 995t-717 361q-457 0-718-361t-261-995 261-995 718-361q456 0 717 361t261 995M1159 2969q182 312 458 463 277 152 661 152 638 0 1036-506 399-506 399-1331T3314 415Q2916-91 2278-91q-384 0-661 152-276 152-458 464V0H581v4863h578z" transform="scale(.01563)"/><path id="DejaVuSans-48" d="M3597 1894v-281H953q38-594 358-905t892-311q331 0 642 81t618 244V178Q3153 47 2828-22t-659-69q-838 0-1327 487-489 488-489 1320 0 859 464 1363 464 505 1252 505 706 0 1117-455 411-454 411-1235m-575 169q-6 471-264 752-258 282-683 282-481 0-770-272t-333-766z" transform="scale(.01563)"/><path id="DejaVuSans-55" d="M2631 2963q-97 56-211 82-114 27-251 27-488 0-749-317t-261-911V0H581v3500h578v-544q182 319 472 473 291 155 707 155 59 0 131-8 72-7 159-23z" transform="scale(.01563)"/><path id="DejaVuSans-Oblique-34e" d="M938 3500h593l-284-1453 1794 1453h700L2106 2181 3275 0h-703l-944 1806-506-403L850 0H256z" transform="scale(.01563)"/><path id="DejaVuSans-b" d="M1984 4856q-418-718-622-1422-203-703-203-1425 0-721 205-1429t620-1424h-500Q1016-109 783 600T550 2009q0 697 231 1403 232 707 703 1444z" transform="scale(.01563)"/><path id="DejaVuSans-Oblique-24" d="M2356 4666h716L3938 0h-660l-194 1197H984L325 0h-666zm228-622L1275 1722h1713z" transform="scale(.01563)"/><path id="DejaVuSans-c" d="M513 4856h500q468-737 701-1444 233-706 233-1403 0-700-233-1409T1013-844H513q415 716 620 1424t205 1429q0 722-205 1425-205 704-620 1422" transform="scale(.01563)"/></defs><use xlink:href="#DejaVuSans-46" transform="translate(0 .016)"/><use xlink:href="#DejaVuSans-52" transform="translate(54.98 .016)"/><use xlink:href="#DejaVuSans-51" transform="translate(116.162 .016)"/><use xlink:href="#DejaVuSans-47" transform="translate(179.541 .016)"/><use xlink:href="#DejaVuSans-4c" transform="translate(243.018 .016)"/><use xlink:href="#DejaVuSans-57" transform="translate(270.8 .016)"/><use xlink:href="#DejaVuSans-4c" transform="translate(310.01 .016)"/><use xlink:href="#DejaVuSans-52" transform="translate(337.793 .016)"/><use xlink:href="#DejaVuSans-51" transform="translate(398.975 .016)"/><use xlink:href="#DejaVuSans-51" transform="translate(494.14 .016)"/><use xlink:href="#DejaVuSans-58" transform="translate(557.52 .016)"/><use xlink:href="#DejaVuSans-50" transform="translate(620.898 .016)"/><use xlink:href="#DejaVuSans-45" transform="translate(718.31 .016)"/><use xlink:href="#DejaVuSans-48" transform="translate(781.787 .016)"/><use xlink:href="#DejaVuSans-55" transform="translate(843.31 .016)"/><use xlink:href="#DejaVuSans-Oblique-34e" transform="translate(916.21 .016)"/><use xlink:href="#DejaVuSans-b" transform="translate(975.146 .016)"/><use xlink:href="#DejaVuSans-Oblique-24" transform="translate(1014.16 .016)"/><use xlink:href="#DejaVuSans-c" transform="translate(1082.568 .016)"/></g></g><g id="matplotlib.axis_2"><g id="ytick_1"><path id="line2d_13" d="M53.31 284.847h479.074" clip-path="url(#p8f151c4a17)" style="fill:none;stroke:#232a33;stroke-width:.8;stroke-linecap:square"/><g id="line2d_14"><defs><path id="m446286cbe8" d="M0 0h-3.5" style="stroke:#768390;stroke-width:.8"/></defs><use xlink:href="#m446286cbe8" x="53.310781" y="284.847365" style="fill:#768390;stroke:#768390;stroke-width:.8"/></g><g id="text_8" style="fill:#768390" transform="matrix(.09 0 0 -.09 21.2 289.077)"><defs><path id="DejaVuSans-c9c" d="M678 2272h4006v-531H678z" transform="scale(.01563)"/></defs><use xlink:href="#DejaVuSans-14" transform="translate(0 .747)"/><use xlink:href="#DejaVuSans-13" transform="translate(63.623 .747)"/><use xlink:href="#DejaVuSans-c9c" transform="matrix(.7 0 0 .7 128.203 42.047)"/><use xlink:href="#DejaVuSans-14" transform="matrix(.7 0 0 .7 186.855 42.047)"/><use xlink:href="#DejaVuSans-1b" transform="matrix(.7 0 0 .7 231.392 42.047)"/></g></g><g id="ytick_2"><path id="line2d_15" d="M53.31 245.788h479.074" clip-path="url(#p8f151c4a17)" style="fill:none;stroke:#232a33;stroke-width:.8;stroke-linecap:square"/><use xlink:href="#m446286cbe8" id="line2d_16" x="53.310781" y="245.787741" style="fill:#768390;stroke:#768390;stroke-width:.8"/><g id="text_9" style="fill:#768390" transform="matrix(.09 0 0 -.09 21.2 249.973)"><defs><path id="DejaVuSans-18" d="M691 4666h2478v-532H1269V2991q137 47 274 70 138 23 276 23 781 0 1237-428 457-428 457-1159 0-753-469-1171Q2575-91 1722-91q-294 0-599 50Q819 9 494 109v635q281-153 581-228t634-75q541 0 856 284 316 284 316 772 0 487-316 771-315 285-856 285-253 0-505-56-251-56-513-175z" transform="scale(.01563)"/></defs><use xlink:href="#DejaVuSans-14" transform="translate(0 .666)"/><use xlink:href="#DejaVuSans-13" transform="translate(63.623 .666)"/><use xlink:href="#DejaVuSans-c9c" transform="matrix(.7 0 0 .7 128.203 41.966)"/><use xlink:href="#DejaVuSans-14" transform="matrix(.7 0 0 .7 186.855 41.966)"/><use xlink:href="#DejaVuSans-18" transform="matrix(.7 0 0 .7 231.392 41.966)"/></g></g><g id="ytick_3"><path id="line2d_17" d="M53.31 206.728h479.074" clip-path="url(#p8f151c4a17)" style="fill:none;stroke:#232a33;stroke-width:.8;stroke-linecap:square"/><use xlink:href="#m446286cbe8" id="line2d_18" x="53.310781" y="206.728118" style="fill:#768390;stroke:#768390;stroke-width:.8"/><g id="text_10" style="fill:#768390" transform="matrix(.09 0 0 -.09 21.2 210.958)"><use xlink:href="#DejaVuSans-14" transform="translate(0 .747)"/><use xlink:href="#DejaVuSans-13" transform="translate(63.623 .747)"/><use xlink:href="#DejaVuSans-c9c" transform="matrix(.7 0 0 .7 128.203 42.047)"/><use xlink:href="#DejaVuSans-14" transform="matrix(.7 0 0 .7 186.855 42.047)"/><use xlink:href="#DejaVuSans-15" transform="matrix(.7 0 0 .7 231.392 42.047)"/></g></g><g id="ytick_4"><path id="line2d_19" d="M53.31 167.668h479.074" clip-path="url(#p8f151c4a17)" style="fill:none;stroke:#232a33;stroke-width:.8;stroke-linecap:square"/><use xlink:href="#m446286cbe8" id="line2d_20" x="53.310781" y="167.668494" style="fill:#768390;stroke:#768390;stroke-width:.8"/><g id="text_11" style="fill:#768390" transform="matrix(.09 0 0 -.09 25.16 171.898)"><defs><path id="DejaVuSans-1c" d="M703 97v575q238-113 481-172 244-59 479-59 625 0 954 420 330 420 377 1277-181-269-460-413-278-144-615-144-700 0-1108 423-408 424-408 1159 0 718 425 1152 425 435 1131 435 810 0 1236-621 427-620 427-1801 0-1103-524-1761Q2575-91 1691-91q-238 0-482 47Q966 3 703 97m1256 1978q425 0 673 290 249 291 249 798 0 503-249 795-248 292-673 292t-673-292-248-795q0-507 248-798 248-290 673-290" transform="scale(.01563)"/></defs><use xlink:href="#DejaVuSans-14" transform="translate(0 .747)"/><use xlink:href="#DejaVuSans-13" transform="translate(63.623 .747)"/><use xlink:href="#DejaVuSans-c9c" transform="matrix(.7 0 0 .7 128.203 42.047)"/><use xlink:href="#DejaVuSans-1c" transform="matrix(.7 0 0 .7 186.855 42.047)"/></g></g><g id="ytick_5"><path id="line2d_21" d="M53.31 128.609h479.074" clip-path="url(#p8f151c4a17)" style="fill:none;stroke:#232a33;stroke-width:.8;stroke-linecap:square"/><use xlink:href="#m446286cbe8" id="line2d_22" x="53.310781" y="128.608871" style="fill:#768390;stroke:#768390;stroke-width:.8"/><g id="text_12" style="fill:#768390" transform="matrix(.09 0 0 -.09 25.16 132.839)"><use xlink:href="#DejaVuSans-14" transform="translate(0 .747)"/><use xlink:href="#DejaVuSans-13" transform="translate(63.623 .747)"/><use xlink:href="#DejaVuSans-c9c" transform="matrix(.7 0 0 .7 128.203 42.047)"/><use xlink:href="#DejaVuSans-19" transform="matrix(.7 0 0 .7 186.855 42.047)"/></g></g><g id="ytick_6"><path id="line2d_23" d="M53.31 89.55h479.074" clip-path="url(#p8f151c4a17)" style="fill:none;stroke:#232a33;stroke-width:.8;stroke-linecap:square"/><use xlink:href="#m446286cbe8" id="line2d_24" x="53.310781" y="89.549247" style="fill:#768390;stroke:#768390;stroke-width:.8"/><g id="text_13" style="fill:#768390" transform="matrix(.09 0 0 -.09 25.16 93.78)"><defs><path id="DejaVuSans-16" d="M2597 2516q453-97 707-404 255-306 255-756 0-690-475-1069Q2609-91 1734-91q-293 0-604 58T488 141v609q262-153 574-231 313-78 654-78 593 0 904 234t311 681q0 413-289 645-289 233-804 233h-544v519h569q465 0 712 186t247 536q0 359-255 551-254 193-729 193-260 0-557-57-297-56-653-174v562q360 100 674 150t592 50q719 0 1137-327 419-326 419-882 0-388-222-655t-631-370" transform="scale(.01563)"/></defs><use xlink:href="#DejaVuSans-14" transform="translate(0 .747)"/><use xlink:href="#DejaVuSans-13" transform="translate(63.623 .747)"/><use xlink:href="#DejaVuSans-c9c" transform="matrix(.7 0 0 .7 128.203 42.047)"/><use xlink:href="#DejaVuSans-16" transform="matrix(.7 0 0 .7 186.855 42.047)"/></g></g><g id="ytick_7"><path id="line2d_25" d="M53.31 50.49h479.074" clip-path="url(#p8f151c4a17)" style="fill:none;stroke:#232a33;stroke-width:.8;stroke-linecap:square"/><use xlink:href="#m446286cbe8" id="line2d_26" x="53.310781" y="50.489624" style="fill:#768390;stroke:#768390;stroke-width:.8"/><g id="text_14" style="fill:#768390" transform="matrix(.09 0 0 -.09 30.47 54.72)"><use xlink:href="#DejaVuSans-14" transform="translate(0 .747)"/><use xlink:href="#DejaVuSans-13" transform="translate(63.623 .747)"/><use xlink:href="#DejaVuSans-13" transform="matrix(.7 0 0 .7 128.203 42.047)"/></g></g><g id="ytick_8"><path id="line2d_27" d="M53.31 11.43h479.074" clip-path="url(#p8f151c4a17)" style="fill:none;stroke:#232a33;stroke-width:.8;stroke-linecap:square"/><use xlink:href="#m446286cbe8" id="line2d_28" x="53.310781" y="11.43" style="fill:#768390;stroke:#768390;stroke-width:.8"/><g id="text_15" style="fill:#768390" transform="matrix(.09 0 0 -.09 30.47 15.66)"><use xlink:href="#DejaVuSans-14" transform="translate(0 .747)"/><use xlink:href="#DejaVuSans-13" transform="translate(63.623 .747)"/><use xlink:href="#DejaVuSans-16" transform="matrix(.7 0 0 .7 128.203 42.047)"/></g></g><g id="text_16" style="fill:#c9d1d9" transform="matrix(0 -.1 -.1 0 14.798 203.332)"><defs><path id="DejaVuSans-4f" d="M603 4863h575V0H603z" transform="scale(.01563)"/><path id="DejaVuSans-44" d="M2194 1759q-697 0-966-159t-269-544q0-306 202-486 202-179 548-179 479 0 768 339t289 901v128zm1147 238V0h-575v531q-197-318-491-470T1556-91q-537 0-855 302-317 302-317 808 0 590 395 890 396 300 1180 300h807v57q0 397-261 614t-733 217q-300 0-585-72-284-72-546-216v532q315 122 612 182 297 61 578 61 760 0 1135-394 375-393 375-1193" transform="scale(.01563)"/><path id="DejaVuSans-59" d="M191 3500h609L1894 563l1094 2937h609L2284 0h-781z" transform="scale(.01563)"/><path id="DejaVuSans-4b" d="M3513 2113V0h-575v2094q0 497-194 743-194 247-581 247-466 0-735-297-269-296-269-809V0H581v4863h578V2956q207 316 486 472 280 156 646 156 603 0 912-373 310-373 310-1098" transform="scale(.01563)"/><path id="DejaVuSans-13af" d="M3431 3500V0h-578v3053H1275V0H697v3053H147v447h550v244q0 572 270 845 271 274 830 274h578v-479h-550q-309 0-430-125-120-125-120-450v-309zm-578 1356h578v-728h-578z" transform="scale(.01563)"/></defs><use xlink:href="#DejaVuSans-55"/><use xlink:href="#DejaVuSans-48" transform="translate(38.906)"/><use xlink:href="#DejaVuSans-4f" transform="translate(100.438)"/><use xlink:href="#DejaVuSans-44" transform="translate(128.219)"/><use xlink:href="#DejaVuSans-57" transform="translate(189.5)"/><use xlink:href="#DejaVuSans-4c" transform="translate(228.703)"/><use xlink:href="#DejaVuSans-59" transform="translate(256.484)"/><use xlink:href="#DejaVuSans-48" transform="translate(315.672)"/><use xlink:href="#DejaVuSans-48" transform="translate(408.984)"/><use xlink:href="#DejaVuSans-55" transform="translate(470.516)"/><use xlink:href="#DejaVuSans-55" transform="translate(509.875)"/><use xlink:href="#DejaVuSans-52" transform="translate(548.781)"/><use xlink:href="#DejaVuSans-55" transform="translate(609.969)"/><use xlink:href="#DejaVuSans-4c" transform="translate(682.86)"/><use xlink:href="#DejaVuSans-51" transform="translate(710.64)"/><use xlink:href="#DejaVuSans-57" transform="translate(805.797)"/><use xlink:href="#DejaVuSans-4b" transform="translate(845)"/><use xlink:href="#DejaVuSans-48" transform="translate(908.375)"/><use xlink:href="#DejaVuSans-13af" transform="translate(1001.688)"/><use xlink:href="#DejaVuSans-57" transform="translate(1064.672)"/></g></g><g id="line2d_29"><path d="m75.087 246.216 19.796-16.87 19.797-12.651 19.796-12.89 19.796-8.101 19.797-12.055 19.796-.692 19.797-37.653 19.796-.677 19.796-19.329 19.797-7.854 19.796-15.783 19.797-6.461 19.796-25.401 19.796 5.477 19.797-34.633 19.796 15.43 19.797-6.933 19.796 6.9 19.796-.759 19.797-12.518 19.796-7.27 19.796 14.22" clip-path="url(#p8f151c4a17)" style="fill:none;stroke:#e86e6e;stroke-width:2;stroke-linecap:square"/><defs><path id="mcf86b8669e" d="M0 2a2 2 0 1 0 0-4 2 2 0 0 0 0 4z" style="stroke:#e86e6e"/></defs><g clip-path="url(#p8f151c4a17)"><use xlink:href="#mcf86b8669e" x="75.086814" y="246.215601" style="fill:#e86e6e;stroke:#e86e6e"/><use xlink:href="#mcf86b8669e" x="94.883211" y="229.345873" style="fill:#e86e6e;stroke:#e86e6e"/><use xlink:href="#mcf86b8669e" x="114.679607" y="216.694677" style="fill:#e86e6e;stroke:#e86e6e"/><use xlink:href="#mcf86b8669e" x="134.476003" y="203.805846" style="fill:#e86e6e;stroke:#e86e6e"/><use xlink:href="#mcf86b8669e" x="154.272399" y="195.70403" style="fill:#e86e6e;stroke:#e86e6e"/><use xlink:href="#mcf86b8669e" x="174.068796" y="183.649028" style="fill:#e86e6e;stroke:#e86e6e"/><use xlink:href="#mcf86b8669e" x="193.865192" y="182.957251" style="fill:#e86e6e;stroke:#e86e6e"/><use xlink:href="#mcf86b8669e" x="213.661588" y="145.303818" style="fill:#e86e6e;stroke:#e86e6e"/><use xlink:href="#mcf86b8669e" x="233.457984" y="144.626546" style="fill:#e86e6e;stroke:#e86e6e"/><use xlink:href="#mcf86b8669e" x="253.254381" y="125.297986" style="fill:#e86e6e;stroke:#e86e6e"/><use xlink:href="#mcf86b8669e" x="273.050777" y="117.444015" style="fill:#e86e6e;stroke:#e86e6e"/><use xlink:href="#mcf86b8669e" x="292.847173" y="101.660702" style="fill:#e86e6e;stroke:#e86e6e"/><use xlink:href="#mcf86b8669e" x="312.64357" y="95.199826" style="fill:#e86e6e;stroke:#e86e6e"/><use xlink:href="#mcf86b8669e" x="332.439966" y="69.798874" style="fill:#e86e6e;stroke:#e86e6e"/><use xlink:href="#mcf86b8669e" x="352.236362" y="75.275572" style="fill:#e86e6e;stroke:#e86e6e"/><use xlink:href="#mcf86b8669e" x="372.032758" y="40.642798" style="fill:#e86e6e;stroke:#e86e6e"/><use xlink:href="#mcf86b8669e" x="391.829155" y="56.073157" style="fill:#e86e6e;stroke:#e86e6e"/><use xlink:href="#mcf86b8669e" x="411.625552" y="49.139538" style="fill:#e86e6e;stroke:#e86e6e"/><use xlink:href="#mcf86b8669e" x="431.421948" y="56.040137" style="fill:#e86e6e;stroke:#e86e6e"/><use xlink:href="#mcf86b8669e" x="451.218342" y="55.281024" style="fill:#e86e6e;stroke:#e86e6e"/><use xlink:href="#mcf86b8669e" x="471.014723" y="42.762555" style="fill:#e86e6e;stroke:#e86e6e"/><use xlink:href="#mcf86b8669e" x="490.811113" y="35.493404" style="fill:#e86e6e;stroke:#e86e6e"/><use xlink:href="#mcf86b8669e" x="510.607475" y="49.713296" style="fill:#e86e6e;stroke:#e86e6e"/></g></g><g id="line2d_30"><path d="m75.087 246.621 19.796-2.285 19.797.557 19.796-6.218 19.796-10.358 19.797.343 19.796-6.902 19.797-12.013 19.796-1.651 19.796-12.817 19.797 11.407 19.796-21.971 19.797-4.614 19.796-8.479 19.796.783 19.797-3.314 19.796-6.493 19.797-5.05 19.796-9.093 19.796-6.244 19.797-12.032 19.796-9.623 19.796-10.874" clip-path="url(#p8f151c4a17)" style="fill:none;stroke:#6ba9dd;stroke-width:2;stroke-linecap:square"/><defs><path id="m35a9c273f4" d="M-2 2h4v-4h-4z" style="stroke:#6ba9dd;stroke-linejoin:miter"/></defs><g clip-path="url(#p8f151c4a17)"><use xlink:href="#m35a9c273f4" x="75.086814" y="246.621273" style="fill:#6ba9dd;stroke:#6ba9dd;stroke-linejoin:miter"/><use xlink:href="#m35a9c273f4" x="94.883211" y="244.336036" style="fill:#6ba9dd;stroke:#6ba9dd;stroke-linejoin:miter"/><use xlink:href="#m35a9c273f4" x="114.679607" y="244.892648" style="fill:#6ba9dd;stroke:#6ba9dd;stroke-linejoin:miter"/><use xlink:href="#m35a9c273f4" x="134.476003" y="238.675161" style="fill:#6ba9dd;stroke:#6ba9dd;stroke-linejoin:miter"/><use xlink:href="#m35a9c273f4" x="154.272399" y="228.317313" style="fill:#6ba9dd;stroke:#6ba9dd;stroke-linejoin:miter"/><use xlink:href="#m35a9c273f4" x="174.068796" y="228.660406" style="fill:#6ba9dd;stroke:#6ba9dd;stroke-linejoin:miter"/><use xlink:href="#m35a9c273f4" x="193.865192" y="221.757843" style="fill:#6ba9dd;stroke:#6ba9dd;stroke-linejoin:miter"/><use xlink:href="#m35a9c273f4" x="213.661588" y="209.744818" style="fill:#6ba9dd;stroke:#6ba9dd;stroke-linejoin:miter"/><use xlink:href="#m35a9c273f4" x="233.457984" y="208.093796" style="fill:#6ba9dd;stroke:#6ba9dd;stroke-linejoin:miter"/><use xlink:href="#m35a9c273f4" x="253.254381" y="195.276766" style="fill:#6ba9dd;stroke:#6ba9dd;stroke-linejoin:miter"/><use xlink:href="#m35a9c273f4" x="273.050777" y="206.683759" style="fill:#6ba9dd;stroke:#6ba9dd;stroke-linejoin:miter"/><use xlink:href="#m35a9c273f4" x="292.847173" y="184.712937" style="fill:#6ba9dd;stroke:#6ba9dd;stroke-linejoin:miter"/><use xlink:href="#m35a9c273f4" x="312.64357" y="180.099318" style="fill:#6ba9dd;stroke:#6ba9dd;stroke-linejoin:miter"/><use xlink:href="#m35a9c273f4" x="332.439966" y="171.620052" style="fill:#6ba9dd;stroke:#6ba9dd;stroke-linejoin:miter"/><use xlink:href="#m35a9c273f4" x="352.236362" y="172.403052" style="fill:#6ba9dd;stroke:#6ba9dd;stroke-linejoin:miter"/><use xlink:href="#m35a9c273f4" x="372.032758" y="169.089135" style="fill:#6ba9dd;stroke:#6ba9dd;stroke-linejoin:miter"/><use xlink:href="#m35a9c273f4" x="391.829155" y="162.595894" style="fill:#6ba9dd;stroke:#6ba9dd;stroke-linejoin:miter"/><use xlink:href="#m35a9c273f4" x="411.625552" y="157.545857" style="fill:#6ba9dd;stroke:#6ba9dd;stroke-linejoin:miter"/><use xlink:href="#m35a9c273f4" x="431.421948" y="148.453089" style="fill:#6ba9dd;stroke:#6ba9dd;stroke-linejoin:miter"/><use xlink:href="#m35a9c273f4" x="451.218342" y="142.208572" style="fill:#6ba9dd;stroke:#6ba9dd;stroke-linejoin:miter"/><use xlink:href="#m35a9c273f4" x="471.014723" y="130.177161" style="fill:#6ba9dd;stroke:#6ba9dd;stroke-linejoin:miter"/><use xlink:href="#m35a9c273f4" x="490.811113" y="120.553948" style="fill:#6ba9dd;stroke:#6ba9dd;stroke-linejoin:miter"/><use xlink:href="#m35a9c273f4" x="510.607475" y="109.680341" style="fill:#6ba9dd;stroke:#6ba9dd;stroke-linejoin:miter"/></g></g><path id="line2d_31" d="m75.087 241.277 19.796-6.51 19.797-6.51 19.796-6.51 19.796-6.51 19.797-6.51 19.796-6.51 19.797-6.51 19.796-6.51 19.796-6.51 19.797-6.51 19.796-6.51 19.797-6.51 19.796-6.51 19.796-6.509 19.797-6.51 19.796-6.51 19.797-6.51 19.796-6.51 19.796-6.51 19.797-6.51 19.796-6.51 19.796-6.51" clip-path="url(#p8f151c4a17)" style="fill:none;stroke-dasharray:1.4,2.31;stroke-dashoffset:0;stroke:#ffd343;stroke-width:1.4"/><path id="line2d_32" d="m75.087 228.257 19.796-13.02 19.797-13.02 19.796-13.02 19.796-13.02 19.797-13.02 19.796-13.019 19.797-13.02 19.796-13.02 19.796-13.02 19.797-13.02 19.796-13.02 19.797-13.02 19.796-13.02 19.796-13.019 19.797-13.02 19.796-13.02 19.797-13.02L423.666-1" clip-path="url(#p8f151c4a17)" style="fill:none;stroke-dasharray:1.4,2.31;stroke-dashoffset:0;stroke:#c599ff;stroke-width:1.4"/><path id="line2d_33" d="M53.31 50.49h479.074" clip-path="url(#p8f151c4a17)" style="fill:none;stroke-dasharray:3.7,1.6;stroke-dashoffset:0;stroke:#768390"/><path id="patch_3" d="M53.31 284.847V11.43" style="fill:none;stroke:#232a33;stroke-width:.8;stroke-linejoin:miter;stroke-linecap:square"/><path id="patch_4" d="M53.31 284.847h479.074" style="fill:none;stroke:#232a33;stroke-width:.8;stroke-linejoin:miter;stroke-linecap:square"/><g id="text_17" style="fill:#768390" transform="matrix(.085 0 0 -.085 75.087 49.006)"><defs><path id="DejaVuSans-8" d="M4653 2053q-272 0-427-231-154-231-154-644 0-406 154-639 155-233 427-233 266 0 420 233 155 233 155 639 0 410-155 642-154 233-420 233m0 397q494 0 784-344 291-343 291-928 0-584-292-927-292-342-783-342-500 0-791 342-290 343-290 927 0 588 292 930t789 342M1428 4353q-269 0-424-233-154-232-154-639 0-412 153-644 153-231 425-231t426 231q155 232 155 644 0 403-156 637-156 235-425 235m2822 397h500L1831-91h-500zm-2822 0q494 0 787-342 294-342 294-927 0-590-292-931t-789-341-786 342q-289 343-289 930 0 582 290 925 291 344 785 344" transform="scale(.01563)"/><path id="DejaVuSans-1d" d="M750 794h659V0H750zm0 2515h659v-793H750z" transform="scale(.01563)"/><path id="DejaVuSans-4a" d="M2906 1791q0 625-258 968-257 344-723 344-462 0-720-344-258-343-258-968 0-622 258-966t720-344q466 0 723 344 258 344 258 966m575-1357q0-893-397-1329-396-436-1215-436-303 0-572 45t-522 139v559q253-137 500-202 247-66 503-66 566 0 847 295t281 892v285q-178-310-456-463T1784 0Q1141 0 747 490 353 981 353 1791q0 812 394 1302 394 491 1037 491 388 0 666-153t456-462v531h575z" transform="scale(.01563)"/><path id="DejaVuSans-56" d="M2834 3397v-544q-243 125-506 187-262 63-544 63-428 0-642-131t-214-394q0-200 153-314t616-217l197-44q612-131 870-370t258-667q0-488-386-773Q2250-91 1575-91q-281 0-586 55T347 128v594q319-166 628-249 309-82 613-82 406 0 624 139 219 139 219 392 0 234-158 359-157 125-692 241l-200 47q-534 112-772 345-237 233-237 639 0 494 350 762 350 269 994 269 318 0 599-47 282-46 519-140" transform="scale(.01563)"/><path id="DejaVuSans-49" d="M2375 4863v-479h-550q-309 0-430-125-120-125-120-450v-309h947v-447h-947V0H697v3053H147v447h550v244q0 584 272 851 272 268 862 268z" transform="scale(.01563)"/></defs><use xlink:href="#DejaVuSans-14"/><use xlink:href="#DejaVuSans-13" transform="translate(63.625)"/><use xlink:href="#DejaVuSans-13" transform="translate(127.25)"/><use xlink:href="#DejaVuSans-8" transform="translate(190.875)"/><use xlink:href="#DejaVuSans-48" transform="translate(317.672)"/><use xlink:href="#DejaVuSans-55" transform="translate(379.203)"/><use xlink:href="#DejaVuSans-55" transform="translate(418.563)"/><use xlink:href="#DejaVuSans-52" transform="translate(457.469)"/><use xlink:href="#DejaVuSans-55" transform="translate(518.656)"/><use xlink:href="#DejaVuSans-1d" transform="translate(558.016)"/><use xlink:href="#DejaVuSans-51" transform="translate(623.484)"/><use xlink:href="#DejaVuSans-52" transform="translate(686.86)"/><use xlink:href="#DejaVuSans-47" transform="translate(779.828)"/><use xlink:href="#DejaVuSans-4c" transform="translate(843.313)"/><use xlink:href="#DejaVuSans-4a" transform="translate(871.094)"/><use xlink:href="#DejaVuSans-4c" transform="translate(934.578)"/><use xlink:href="#DejaVuSans-57" transform="translate(962.36)"/><use xlink:href="#DejaVuSans-56" transform="translate(1001.563)"/><use xlink:href="#DejaVuSans-4f" transform="translate(1085.438)"/><use xlink:href="#DejaVuSans-48" transform="translate(1113.219)"/><use xlink:href="#DejaVuSans-49" transform="translate(1174.75)"/><use xlink:href="#DejaVuSans-57" transform="translate(1208.203)"/></g><g id="legend_1"><g id="line2d_34"><path d="M60.96 23.84h17" style="fill:none;stroke:#e86e6e;stroke-width:2;stroke-linecap:square"/><use xlink:href="#mcf86b8669e" x="69.460781" y="23.84" style="fill:#e86e6e;stroke:#e86e6e"/></g><g id="text_18" style="fill:#c9d1d9" transform="matrix(.085 0 0 -.085 84.76 26.815)"><defs><path id="DejaVuSans-54" d="M947 1747q0-634 261-995t717-361 718 361q263 361 263 995t-263 995q-262 361-718 361t-717-361-261-995M2906 525q-181-312-458-464-276-152-664-152-634 0-1033 506-398 507-398 1332t398 1331q399 506 1033 506 388 0 664-152 277-151 458-463v531h575v-4831h-575z" transform="scale(.01563)"/><path id="DejaVuSans-d2e" d="M5028 4481v-397H2988V0h-400v4084H547v397z" transform="scale(.01563)"/></defs><use xlink:href="#DejaVuSans-59" transform="translate(0 .69)"/><use xlink:href="#DejaVuSans-4c" transform="translate(59.18 .69)"/><use xlink:href="#DejaVuSans-44" transform="translate(86.963 .69)"/><use xlink:href="#DejaVuSans-51" transform="translate(180.03 .69)"/><use xlink:href="#DejaVuSans-52" transform="translate(243.408 .69)"/><use xlink:href="#DejaVuSans-55" transform="translate(304.59 .69)"/><use xlink:href="#DejaVuSans-50" transform="translate(343.703 .69)"/><use xlink:href="#DejaVuSans-44" transform="translate(441.115 .69)"/><use xlink:href="#DejaVuSans-4f" transform="translate(502.395 .69)"/><use xlink:href="#DejaVuSans-48" transform="translate(561.965 .69)"/><use xlink:href="#DejaVuSans-54" transform="translate(623.488 .69)"/><use xlink:href="#DejaVuSans-58" transform="translate(686.965 .69)"/><use xlink:href="#DejaVuSans-44" transform="translate(750.344 .69)"/><use xlink:href="#DejaVuSans-57" transform="translate(811.623 .69)"/><use xlink:href="#DejaVuSans-4c" transform="translate(850.832 .69)"/><use xlink:href="#DejaVuSans-52" transform="translate(878.615 .69)"/><use xlink:href="#DejaVuSans-51" transform="translate(939.797 .69)"/><use xlink:href="#DejaVuSans-56" transform="translate(1003.176 .69)"/><use xlink:href="#DejaVuSans-Oblique-24" transform="translate(1087.063 .69)"/><use xlink:href="#DejaVuSans-d2e" transform="matrix(.7 0 0 .7 1176.125 41.99)"/><use xlink:href="#DejaVuSans-Oblique-24" transform="translate(1253.474 .69)"/></g><g id="line2d_35"><path d="M60.96 36.59h17" style="fill:none;stroke:#6ba9dd;stroke-width:2;stroke-linecap:square"/><use xlink:href="#m35a9c273f4" x="69.460781" y="36.590664" style="fill:#6ba9dd;stroke:#6ba9dd;stroke-linejoin:miter"/></g><g id="text_19" style="fill:#c9d1d9" transform="matrix(.085 0 0 -.085 84.76 39.566)"><defs><path id="DejaVuSans-53" d="M1159 525v-1856H581v4831h578v-531q182 312 458 463 277 152 661 152 638 0 1036-506 399-506 399-1331T3314 415Q2916-91 2278-91q-384 0-661 152-276 152-458 464m1957 1222q0 634-261 995t-717 361q-457 0-718-361t-261-995 261-995 718-361q456 0 717 361t261 995" transform="scale(.01563)"/><path id="DejaVuSans-11" d="M684 794h660V0H684z" transform="scale(.01563)"/></defs><use xlink:href="#DejaVuSans-51"/><use xlink:href="#DejaVuSans-53" transform="translate(63.375)"/><use xlink:href="#DejaVuSans-11" transform="translate(126.86)"/><use xlink:href="#DejaVuSans-4f" transform="translate(158.64)"/><use xlink:href="#DejaVuSans-4c" transform="translate(186.422)"/><use xlink:href="#DejaVuSans-51" transform="translate(214.203)"/><use xlink:href="#DejaVuSans-44" transform="translate(277.578)"/><use xlink:href="#DejaVuSans-4f" transform="translate(338.86)"/><use xlink:href="#DejaVuSans-4a" transform="translate(366.64)"/><use xlink:href="#DejaVuSans-11" transform="translate(430.125)"/><use xlink:href="#DejaVuSans-4f" transform="translate(461.906)"/><use xlink:href="#DejaVuSans-56" transform="translate(489.688)"/><use xlink:href="#DejaVuSans-57" transform="translate(541.781)"/><use xlink:href="#DejaVuSans-56" transform="translate(580.984)"/><use xlink:href="#DejaVuSans-54" transform="translate(633.078)"/></g><path id="line2d_36" d="M60.96 49.343h17" style="fill:none;stroke-dasharray:1.4,2.31;stroke-dashoffset:0;stroke:#ffd343;stroke-width:1.4"/><g id="text_20" style="fill:#c9d1d9" transform="matrix(.085 0 0 -.085 84.76 52.318)"><defs><path id="DejaVuSans-Oblique-349" d="M1263 1888q-338 75-485 278-109 143-109 337 0 531 506 841 400 244 1013 244 237 0 496-38 260-37 550-112l-100-522q-287 90-528 131-247 41-468 41-372 0-616-144-294-172-294-422 0-166 153-281 182-138 544-138h484l-90-475h-463q-431 0-684-159-344-216-344-553 0-213 185-353 231-175 703-175 290 0 568 56 279 59 522 175L2700 84Q2403-3 2131-47t-522-44Q866-91 516 194 250 413 250 781q0 497 350 803 259 229 663 304" transform="scale(.01563)"/></defs><use xlink:href="#DejaVuSans-Oblique-349" transform="translate(0 .125)"/><use xlink:href="#DejaVuSans-Oblique-34e" transform="translate(70.288 .125)"/><use xlink:href="#DejaVuSans-b" transform="translate(129.224 .125)"/><use xlink:href="#DejaVuSans-Oblique-24" transform="translate(168.238 .125)"/><use xlink:href="#DejaVuSans-c" transform="translate(236.646 .125)"/></g><path id="line2d_37" d="M60.96 63.625h17" style="fill:none;stroke-dasharray:1.4,2.31;stroke-dashoffset:0;stroke:#c599ff;stroke-width:1.4"/><g id="text_21" style="fill:#c9d1d9" transform="matrix(.085 0 0 -.085 84.76 66.6)"><use xlink:href="#DejaVuSans-Oblique-349" transform="translate(0 .747)"/><use xlink:href="#DejaVuSans-Oblique-34e" transform="translate(70.288 .747)"/><use xlink:href="#DejaVuSans-b" transform="translate(129.224 .747)"/><use xlink:href="#DejaVuSans-Oblique-24" transform="translate(168.238 .747)"/><use xlink:href="#DejaVuSans-c" transform="translate(236.646 .747)"/><use xlink:href="#DejaVuSans-15" transform="matrix(.7 0 0 .7 276.617 42.047)"/></g></g></g></g><defs><clipPath id="p8f151c4a17"><path d="M53.31 11.43h479.074v273.417H53.31z"/></clipPath></defs></svg>